# AST/ASF file generated using VICON BodyLanguage
# -----------------------------------------------
:version 1.10
:name VICON
:units
  mass 1.0
  length 0.45
  angle deg
:documentation
   .ast/.asf automatically generated from VICON data using
   VICON BodyBuilder and BodyLanguage model FoxedUp or BRILLIANT.MOD
:root
   order TX TY TZ RX RY RZ
   axis XYZ
   position 0 0 0  
   orientation 0 0 0 
:bonedata
  begin
     id 1 
     name lhipjoint
     direction 0.78388 -0.462562 0.414208 
     length 3.01181 
     axis 0 0 0  XYZ
  end
  begin
     id 2 
     name lfemur
     direction 0.34202 -0.939693 0  
     length 6.04673  
     axis 0 0 20  XYZ
    dof rx ry rz
    limits (-160.0 20.0)
           (-70.0 70.0)
           (-60.0 70.0)
  end
  begin
     id 3 
     name ltibia
     direction 0.34202 -0.939693 0   
     length 7.211   
     axis 0 0 20   XYZ
    dof rx
    limits (-10.0 170.0)
  end
  begin
     id 4 
     name lfoot
     direction 0.121887 -0.334882 0.934344   
     length 2.13567   
     axis -90 7.62852e-016 20   XYZ
    dof rx rz
    limits (-45.0 90.0)
           (-70.0 20.0)
  end
  begin
     id 5 
     name ltoes
     direction 1.53555e-011 -4.2179e-011 1   
     length 1.05957   
     axis -90 7.62852e-016 20   XYZ
    dof rx
    limits (-90.0 20.0)
  end
  begin
     id 6 
     name rhipjoint
     direction -0.769387 -0.475875 0.426129   
     length 2.92756  
     axis 0 0 0  XYZ 
  end
  begin
     id 7 
     name rfemur
     direction -0.34202 -0.939693 0   
     length 6.35468   
     axis 0 0 -20   XYZ
    dof rx ry rz
    limits (-160.0 20.0)
           (-70.0 70.0)
           (-70.0 60.0)
  end
  begin
     id 8 
     name rtibia
     direction -0.34202 -0.939693 0   
     length 7.37886   
     axis 0 0 -20   XYZ
    dof rx
    limits (-10.0 170.0)
 end
 begin
     id 9 
     name rfoot
     direction -0.101763 -0.279592 0.954711   
     length 2.21478  
     axis -90 -7.62852e-016 -20   XYZ
    dof rx rz
    limits (-45.0 90.0)
           (-20.0 70.0)
  end
  begin
     id 10 
     name rtoes
     direction -1.53494e-011 -4.21851e-011 1   
     length 1.10506   
     axis -90 -7.62852e-016 -20   XYZ
    dof rx
    limits (-90.0 20.0)
  end
  begin
     id 11 
     name lowerback
     direction 0.00747405 0.999267 0.0375481   
     length 2.13259   
     axis 0 0 0   XYZ
    dof rx ry rz
    limits (-20.0 45.0)
           (-30.0 30.0)
           (-30.0 30.0)
  end
  begin
     id 12 
     name upperback
     direction 0.00661626 0.996177 0.0871029   
     length 2.10528   
     axis 0 0 0   XYZ
    dof rx ry rz
    limits (-20.0 45.0)
           (-30.0 30.0)
           (-30.0 30.0)
  end
  begin
     id 13 
     name thorax
     direction 0.00320659 0.997679 0.0680167   
     length 2.11338   
     axis 0 0 0   XYZ
    dof rx ry rz
    limits (-20.0 45.0)
           (-30.0 30.0)
           (-30.0 30.0)
  end
  begin
     id 14 
     name lowerneck
     direction 0.0374841 0.973033 0.227602   
     length 1.42765   
     axis 0 0 0   XYZ
    dof rx ry rz
    limits (-20.0 45.0)
           (-30.0 30.0)
           (-30.0 30.0)
  end
  begin
     id 15 
     name upperneck
     direction 0.00481585 0.989155 -0.146795   
     length 1.47593   
     axis 0 0 0   XYZ
    dof rx ry rz
    limits (-20.0 45.0)
           (-30.0 30.0)
           (-30.0 30.0)
  end
  begin
     id 16
     name head
     direction -0.00292522 0.997206 -0.0746423  
     length 1.48116  
     axis 0 0 0   XYZ
    dof rx ry rz
    limits (-20.0 45.0)
           (-30.0 30.0)
           (-30.0 30.0)
  end
  begin
     id 17 
     name lclavicle
     direction 0.951444 0.305606 0.0368784  
     length 3.01855  
     axis 0 0 0   XYZ
    dof ry rz
    limits (-20.0 10.0)
           (0.0 20.0)
  end
  begin
     id 18 
     name lhumerus
     direction 1 -4.48977e-011 2.61664e-027   
     length 5.52731   
     axis 180 -30 -90   XYZ
    dof rx ry rz
    limits (-60.0 90.0)
           (-90.0 90.0)
           (-90.0 90.0)
  end
  begin
     id 19
     name lradius
     direction 1 -4.48944e-011 8.22157e-027   
     length 3.11059   
     axis 180 -30 -90   XYZ
    dof rx
    limits (-10.0 170.0)
  end
  begin
     id 20
     name lwrist
     direction 1 -4.48976e-011 1.5779e-026   
     length 1.5553   
     axis -1.15221e-014 90 90   XYZ
    dof ry
    limits (-180.0 0.0)
 end
  begin
     id 21 
     name lhand
     direction 1 -4.49025e-011 3.1558e-026   
     length 0.419626   
     axis -2.01367e-014 90 90   XYZ
    dof rx rz
    limits (-90.0 90.0)
           (-45.0 45.0)
  end
  begin
     id 22 
     name lfingers
     direction 1 -4.4904e-011 6.31161e-026   
     length 0.338313   
     axis -4.02734e-014 90 90   XYZ
    dof rx
    limits (0.0 90.0)
  end
  begin
     id 23
     name lthumb
     direction 0.707107 -6.35004e-011 0.707107   
     length 0.485752   
     axis -90 45 2.85299e-015   XYZ
    dof rx rz
    limits (-45.0 45.0)
           (-45.0 45.0)
  end
  begin
     id 24 
     name rclavicle
     direction -0.968876 0.223791 0.105816   
     length 3.04177  
     axis 0 0 0   XYZ 
    dof ry rz
    limits (-10.0 20.0)
           (-20.0 0.0)
  end
  begin
     id 25 
     name rhumerus
     direction -1 -4.48962e-011 -1.01384e-027  
     length 5.25396   
     axis 180 30 90   XYZ
    dof rx ry rz
    limits (-90.0 60.0)
           (-90.0 90.0)
           (-90.0 90.0)
  end
  begin
     id 26 
     name rradius
     direction -1 -4.48955e-011 8.88542e-027   
     length 3.10567   
     axis 180 30 90   XYZ
    dof rx
    limits (-10.0 170.0)
  end
  begin
     id 27 
     name rwrist
     direction -1 -4.48994e-011 1.5779e-026   
     length 1.55283   
     axis -1.15221e-014 -90 -90   XYZ
    dof ry
    limits (-180.0 0.0)
  end
  begin
     id 28
     name rhand
     direction -1 -4.48891e-011 3.1558e-026   
     length 0.498676   
     axis -2.01367e-014 -90 -90   XYZ
    dof rx rz
    limits (-90.0 90.0)
           (-45.0 45.0)
  end
  begin
     id 29
     name rfingers
     direction -1 -4.48972e-011 6.31161e-026   
     length 0.402045   
     axis -4.02734e-014 -90 -90   XYZ
    dof rx
    limits (0.0 90.0)
  end
  begin
     id 30
     name rthumb
     direction -0.707107 -6.34849e-011 0.707107   
     length 0.577259   
     axis -90 -45 -2.85299e-015   XYZ
    dof rx rz
    limits (-45.0 45.0)
           (-45.0 45.0)
  end
:hierarchy
  begin
    root lhipjoint rhipjoint lowerback
    lhipjoint lfemur
    lfemur ltibia
    ltibia lfoot
    lfoot ltoes
    rhipjoint rfemur
    rfemur rtibia
    rtibia rfoot
    rfoot rtoes
    lowerback upperback
    upperback thorax
    thorax lowerneck lclavicle rclavicle
    lowerneck upperneck
    upperneck head
    lclavicle lhumerus
    lhumerus lradius
    lradius lwrist
    lwrist lhand lthumb
    lhand lfingers
    rclavicle rhumerus
    rhumerus rradius
    rradius rwrist
    rwrist rhand rthumb
    rhand rfingers
  end

#!OML:ASF H:\Pregnant\Project 1\Capture day 1\Session 1\femalepreg.ASF
:FULLY-SPECIFIED
:DEGREES
18
root 3.65985 10.1465 2.97783 3.22526 -3.17829 -3.374
lowerback -19.1884 0.655253 2.66469
upperback 1.89993 0.0965558 1.12936
thorax 12.9752 0.183301 -0.227433
lowerneck -23.2919 2.90636 4.06922
upperneck 33.3498 1.35509 3.25872
head 15.7589 1.59456 0.969648
rclavicle -1.09071e-014 1.33683e-014
rhumerus -26.8371 4.49672 -76.585
rradius 80.6732
rwrist 12.7016
rhand -4.14344 -25.5741
rfingers 7.12502
rthumb 21.6162 -54.3876
lclavicle -1.09071e-014 1.33683e-014
lhumerus -26.1488 0.930208 76.2808
lradius 78.6743
lwrist 7.32374
lhand -4.97613 13.3804
lfingers 7.12502
lthumb 20.8163 42.2837
rfemur -90.4575 -6.74701 20.8356
rtibia 87.1762
rfoot 4.89112 -4.46713
rtoes -7.07165
lfemur -89.9079 10.5776 -18.4805
ltibia 78.3076
lfoot 11.9788 -2.64864
ltoes -3.79683
19
root 3.66131 10.1455 2.9786 3.23801 -3.14112 -3.46805
lowerback -18.8868 0.648664 2.76163
upperback 1.95718 0.0722005 1.15473
thorax 12.8647 0.177367 -0.263263
lowerneck -23.4207 2.90923 4.06629
upperneck 33.25 1.35818 3.24953
head 15.7403 1.59294 0.966591
rclavicle -5.31904e-017 3.18055e-015
rhumerus -26.8516 4.58284 -76.5378
rradius 80.8456
rwrist 12.7328
rhand -4.22133 -25.6027
rfingers 7.12502
rthumb 21.5414 -54.4247
lclavicle -5.31904e-017 3.18055e-015
lhumerus -26.1804 0.906139 76.279
lradius 78.8681
lwrist 6.82042
lhand -4.94175 13.2855
lfingers 7.12502
lthumb 20.8494 42.1852
rfemur -90.4417 -6.77199 20.9271
rtibia 87.1692
rfoot 4.87836 -4.47687
rtoes -7.05057
lfemur -89.9648 10.5523 -18.3892
ltibia 78.3515
lfoot 11.9823 -2.66078
ltoes -3.82508
20
root 3.66281 10.1446 2.97949 3.2558 -3.10518 -3.56224
lowerback -18.5838 0.642079 2.86076
upperback 2.00923 0.0483047 1.17933
thorax 12.7472 0.171641 -0.300981
lowerneck -23.5507 2.91164 4.05282
upperneck 33.1572 1.35923 3.25499
head 15.7251 1.59144 0.97142
rclavicle 1.72609e-014 3.15571e-015
rhumerus -26.8779 4.67203 -76.4932
rradius 81.022
rwrist 12.7684
rhand -4.29708 -25.6345
rfingers 7.12502
rthumb 21.4687 -54.4649
lclavicle 1.72609e-014 3.15571e-015
lhumerus -26.2216 0.887358 76.2741
lradius 79.0722
lwrist 6.33515
lhand -4.90431 13.2092
lfingers 7.12502
lthumb 20.8854 42.1049
rfemur -90.4292 -6.79424 21.0184
rtibia 87.1608
rfoot 4.86558 -4.48804
rtoes -7.04183
lfemur -90.0252 10.5273 -18.2971
ltibia 78.3944
lfoot 11.9858 -2.66982
ltoes -3.83374
21
root 3.66429 10.1441 2.98044 3.27757 -3.06878 -3.6565
lowerback -18.2725 0.637817 2.96368
upperback 2.04722 0.0287344 1.19881
thorax 12.6084 0.168007 -0.345384
lowerneck -23.659 2.91248 4.03925
upperneck 33.0695 1.3538 3.27491
head 15.7075 1.58944 0.980877
rclavicle 9.66746e-017 -1.25731e-014
rhumerus -26.9442 4.75063 -76.4587
rradius 81.21
rwrist 12.8144
rhand -4.37475 -25.6668
rfingers 7.12502
rthumb 21.3941 -54.5056
lclavicle 9.66746e-017 -1.25731e-014
lhumerus -26.2887 0.858589 76.2615
lradius 79.2901
lwrist 5.88266
lhand -4.8762 13.1544
lfingers 7.12502
lthumb 20.9124 42.0472
rfemur -90.4197 -6.81546 21.1094
rtibia 87.1512
rfoot 4.85341 -4.50013
rtoes -7.03335
lfemur -90.0879 10.502 -18.2049
ltibia 78.4356
lfoot 11.9886 -2.6768
ltoes -3.83045
22
root 3.66586 10.1436 2.98135 3.29752 -3.03078 -3.75087
lowerback -17.9509 0.631812 3.0674
upperback 2.08087 0.00787534 1.21926
thorax 12.4584 0.163497 -0.389501
lowerneck -23.7629 2.91355 4.01934
upperneck 32.9854 1.35 3.29932
head 15.6904 1.58802 0.99367
rclavicle 8.26626e-015 1.09829e-014
rhumerus -27.0278 4.83153 -76.4244
rradius 81.4081
rwrist 12.8635
rhand -4.45001 -25.6951
rfingers 7.12502
rthumb 21.3218 -54.5421
lclavicle 8.26626e-015 1.09829e-014
lhumerus -26.3685 0.836632 76.2489
lradius 79.5186
lwrist 5.46983
lhand -4.86296 13.113
lfingers 7.12502
lthumb 20.9251 42.0044
rfemur -90.4073 -6.83852 21.2002
rtibia 87.1412
rfoot 4.84001 -4.51214
rtoes -7.02796
lfemur -90.1469 10.4745 -18.1115
ltibia 78.4749
lfoot 11.9921 -2.68165
ltoes -3.81345
